# xmcd
#
# Track frame offsets:
# 150
# 15594
# 29565
# 50632
# 67108
# 84848
# 115001
# 142112
# 161941
# 188251
# 210777
# 229836
# 251575
# 262773
# 283035
# 299562
#
# Disc length: 4340 seconds
#
# Revision: 0
# Processed by: cddbd v1.4PL0 Copyright (c) Steve Scherf et al.
# Submitted via: Audion 3.0.2 (http://www.panic.com/audion/)
#
DISCID=e210f210
DTITLE=varios - cd1
DYEAR=1900
DGENRE=
TTITLE0=a
TTITLE1=a
TTITLE2=a
TTITLE3=a
TTITLE4=a
TTITLE5=a
TTITLE6=a
TTITLE7=a
TTITLE8=a
TTITLE9=a
TTITLE10=aa
TTITLE11=a
TTITLE12=a
TTITLE13=a
TTITLE14=a
TTITLE15=aa
EXTD=
EXTT0=
EXTT1=
EXTT2=
EXTT3=
EXTT4=
EXTT5=
EXTT6=
EXTT7=
EXTT8=
EXTT9=
EXTT10=
EXTT11=
EXTT12=
EXTT13=
EXTT14=
EXTT15=
PLAYORDER=
